<?xml version="1.0" standalone="no"?>
<!-- Generator: Gravit.io -->
<svg 
	xmlns="http://www.w3.org/2000/svg"
	xmlns:xlink="http://www.w3.org/1999/xlink"
	style="isolation:isolate"
	viewBox="0 0 500 500" 
	width="500"
	height="500">

	<g id="null">
		<path
			d="M 42.086 230.027 L 54.395 162.73 C 56.793 149.62 69.343 141.132 82.403 143.786 L 90.12 145.355 L 119.547 82.473 C 125.196 70.402 139.382 65.595 151.206 71.744 L 159.634 76.127 L 207.156 16.711 C 215.48 6.303 230.326 5.042 240.287 13.895 L 256.937 28.694 L 265.145 18.433 C 266.854 16.296 269.901 16.037 271.946 17.855 L 315.008 56.128 C 317.052 57.946 317.325 61.156 315.617 63.292 L 307.409 73.554 L 482.571 229.24 C 492.532 238.093 493.862 253.731 485.537 264.139 L 383.298 391.968 L 373.754 444.149 C 373.41 446.028 372.857 447.813 372.125 449.483 L 372.125 466.853 C 372.125 480.18 361.305 491 347.977 491 L 32.147 491 C 18.82 491 8 480.18 8 466.853 L 8 254.174 C 8 240.847 18.82 230.027 32.147 230.027 L 42.086 230.027 Z"

			style="stroke:none;fill:#55B6FB;stroke-miterlimit:10;"
		/>
		<path
			d="M 42.086 230.027 L 54.395 162.73 C 56.793 149.62 69.343 141.132 82.403 143.786 L 90.12 145.355 L 119.547 82.473 C 125.196 70.402 139.382 65.595 151.206 71.744 L 159.634 76.127 L 207.156 16.711 C 215.48 6.303 230.326 5.042 240.287 13.895 L 256.937 28.694 L 265.145 18.433 C 266.854 16.296 269.901 16.037 271.946 17.855 L 315.008 56.128 C 317.052 57.946 317.325 61.156 315.617 63.292 L 307.409 73.554 L 482.571 229.24 C 492.532 238.093 493.862 253.731 485.537 264.139 L 383.298 391.968 L 373.754 444.149 C 373.41 446.028 372.857 447.813 372.125 449.483 L 372.125 466.853 C 372.125 480.18 361.305 491 347.977 491 L 32.147 491 C 18.82 491 8 480.18 8 466.853 L 8 254.174 C 8 240.847 18.82 230.027 32.147 230.027 L 42.086 230.027 Z"
		
			style="fill:none;stroke:#000000;stroke-width:14.907050541101606;stroke-linecap:square;stroke-miterlimit:3;"
		/>
		<g id="null">
			<g id="null">
				<path
					d="M 240.287 13.895 L 482.571 229.24 C 492.532 238.093 493.862 253.731 485.537 264.139 L 356.123 425.944 C 347.799 436.352 332.954 437.613 322.993 428.76 L 80.708 213.415 C 70.747 204.562 69.418 188.924 77.742 178.516 L 207.156 16.711 C 215.48 6.303 230.326 5.042 240.287 13.895 Z"

					style="stroke:none;fill:#55B6FB;stroke-linecap:square;stroke-miterlimit:3;"
				/>
				<path
					d="M 271.946 17.855 L 315.008 56.128 C 317.052 57.946 317.325 61.156 315.617 63.292 L 305.85 75.502 C 304.142 77.639 301.094 77.898 299.05 76.08 L 255.988 37.807 C 253.943 35.989 253.67 32.779 255.379 30.643 L 265.145 18.433 C 266.854 16.296 269.901 16.037 271.946 17.855 Z"

					style="stroke:none;fill:#55B6FB;stroke-linecap:square;stroke-miterlimit:3;"/>
			</g>
		</g>

		<g id="null">
			<path
				d="M 151.206 71.744 L 434.908 219.285 C 446.732 225.434 451.745 240.226 446.096 252.297 L 357.039 442.598 C 351.39 454.669 337.204 459.477 325.38 453.328 L 41.678 305.786 C 29.854 299.637 24.841 284.845 30.489 272.774 L 119.547 82.473 C 125.196 70.402 139.382 65.595 151.206 71.744 Z"

				style="stroke:none;fill:#0BFB17;stroke-linecap:square;stroke-miterlimit:3;"
			/>
			<path
				d="M 182.641 67.479 L 233.051 93.695 C 235.478 94.957 236.507 97.993 235.347 100.471 L 228.596 114.897 C 227.437 117.375 224.525 118.361 222.098 117.099 L 171.688 90.883 C 169.261 89.621 168.232 86.585 169.392 84.107 L 176.143 69.682 C 177.302 67.204 180.214 66.217 182.641 67.479 Z"

				style="stroke:none;fill:#0BFB17;stroke-linecap:square;stroke-miterlimit:3;"/>
		</g>

		<g id="null">
			<path
				d="M 82.403 143.786 L 392.615 206.838 C 405.676 209.493 414.332 222.291 411.934 235.401 L 373.754 444.149 C 371.356 457.258 358.806 465.747 345.746 463.092 L 35.533 400.04 C 22.473 397.385 13.816 384.587 16.214 371.477 L 54.395 162.73 C 56.793 149.62 69.343 141.132 82.403 143.786 Z"

				style="stroke:none;fill:#FFD502;stroke-linecap:square;stroke-miterlimit:3;"
			/>
			<path
				d="M 111.482 130.871 L 166.591 142.072 C 169.272 142.617 171.048 145.244 170.556 147.935 L 167.653 163.809 C 167.161 166.5 164.585 168.242 161.904 167.697 L 106.795 156.496 C 104.115 155.951 102.338 153.324 102.83 150.633 L 105.733 134.759 C 106.226 132.068 108.802 130.326 111.482 130.871 Z"

				style="stroke:none;fill:#FFD502;stroke-linecap:square;stroke-miterlimit:3;"
			/>
		</g>

		<g id="null">
			<path
				d="M 32.147 230.027 L 347.977 230.027 C 361.305 230.027 372.125 240.847 372.125 254.174 L 372.125 466.853 C 372.125 480.18 361.305 491 347.977 491 L 32.147 491 C 18.82 491 8 480.18 8 466.853 L 8 254.174 C 8 240.847 18.82 230.027 32.147 230.027 Z"

				style="stroke:none;fill:#FB5555;stroke-linecap:square;stroke-miterlimit:3;"
			/>
			<path
				d="M 58.343 211.541 L 114.447 211.541 C 117.183 211.541 119.404 213.762 119.404 216.497 L 119.404 232.682 C 119.404 235.417 117.183 237.638 114.447 237.638 L 58.343 237.638 C 55.608 237.638 53.387 235.417 53.387 232.682 L 53.387 216.497 C 53.387 213.762 55.608 211.541 58.343 211.541 Z"

				style="stroke:none;fill:#FB5555;stroke-linecap:square;stroke-miterlimit:3;"/>
		</g>
	</g>

</svg>
